<?xml version="1.0" standalone="no"?>
<!DOCTYPE svg PUBLIC "-//W3C//DTD SVG 20010904//EN"
 "http://www.w3.org/TR/2001/REC-SVG-20010904/DTD/svg10.dtd">
<svg version="1.0" xmlns="http://www.w3.org/2000/svg"
 width="662.000000pt" height="662.000000pt" viewBox="0 0 662.000000 662.000000"
 preserveAspectRatio="xMidYMid meet">
<metadata>
Created by potrace 1.11, written by Peter Selinger 2001-2013
</metadata>
<g transform="translate(0.000000,662.000000) scale(0.100000,-0.100000)"
fill="#000000" stroke="none">
<path d="M1910 4776 c-573 -83 -985 -457 -1102 -999 -31 -146 -31 -408 0 -554
111 -513 484 -875 1014 -983 301 -62 671 -19 923 107 93 47 210 129 289 204
l78 74 -151 144 -152 144 -47 -45 c-105 -101 -238 -179 -374 -219 -110 -32
-322 -37 -448 -11 -362 75 -615 334 -679 696 -14 77 -14 255 0 332 76 433 421
713 877 714 242 0 448 -79 613 -237 l58 -55 151 144 152 143 -79 74 c-172 164
-392 272 -641 317 -123 22 -365 27 -482 10z"/>
<path d="M4560 4776 c-573 -83 -985 -457 -1102 -999 -31 -146 -31 -408 0 -554
111 -513 484 -875 1014 -983 301 -62 671 -19 923 107 93 47 210 129 289 204
l78 74 -151 144 -152 144 -47 -45 c-105 -101 -238 -179 -374 -219 -110 -32
-322 -37 -448 -11 -362 75 -615 334 -679 696 -14 77 -14 255 0 332 76 433 421
713 877 714 242 0 448 -79 613 -237 l58 -55 151 144 152 143 -79 74 c-172 164
-392 272 -641 317 -123 22 -365 27 -482 10z"/>
<path d="M1729 1698 c-7 -18 -31 -52 -53 -76 -21 -23 -37 -45 -34 -47 10 -11
36 7 67 46 30 37 35 39 86 39 66 0 70 -13 26 -81 -32 -50 -71 -88 -119 -117
-21 -12 -29 -22 -23 -27 16 -9 93 38 126 77 33 39 86 148 79 160 -3 4 -34 8
-70 8 -60 0 -64 1 -55 19 10 18 6 31 -9 31 -4 0 -14 -15 -21 -32z"/>
<path d="M2630 1575 c0 -122 2 -145 15 -145 12 0 15 16 15 80 0 44 3 80 8 80
4 0 35 -16 69 -34 34 -18 65 -31 68 -28 13 14 0 26 -70 59 l-75 35 0 49 c0 37
-4 49 -15 49 -13 0 -15 -23 -15 -145z"/>
<path d="M4229 1706 c-19 -8 -63 -17 -97 -21 -34 -4 -62 -12 -62 -17 0 -7 20
-8 56 -4 l55 6 -3 -32 -3 -33 -67 -3 c-87 -4 -89 -22 -3 -22 55 0 65 -3 65
-17 0 -30 -37 -81 -71 -98 -21 -12 -28 -20 -21 -27 25 -25 101 49 116 115 6
26 9 27 66 27 33 0 60 4 60 10 0 6 -27 10 -61 10 l-60 0 3 37 c3 33 7 38 46
51 23 7 40 18 36 23 -7 11 -10 11 -55 -5z"/>
<path d="M1980 1635 c0 -60 3 -75 15 -75 12 0 15 15 15 75 0 60 -3 75 -15 75
-12 0 -15 -15 -15 -75z"/>
<path d="M2140 1624 l0 -86 -39 -39 c-21 -22 -48 -39 -60 -39 -12 0 -21 -6
-21 -16 0 -30 89 12 123 58 28 38 39 208 13 208 -13 0 -16 -13 -16 -86z"/>
<path d="M2280 1683 c0 -9 23 -13 80 -13 44 0 80 -4 80 -9 0 -34 -134 -177
-181 -193 -7 -2 -9 -9 -5 -16 8 -13 34 1 103 55 23 18 44 33 48 33 3 0 30 -23
60 -51 36 -34 55 -46 61 -38 4 8 -14 31 -51 63 l-58 52 33 57 c18 32 29 61 25
65 -4 4 -49 7 -101 7 -68 0 -94 -3 -94 -12z"/>
<path d="M2850 1680 c0 -6 43 -10 110 -10 126 0 126 0 85 -79 -26 -52 -69 -94
-122 -119 -36 -17 -43 -32 -15 -32 23 0 103 56 131 92 28 36 61 108 61 136 0
22 -2 22 -125 22 -77 0 -125 -4 -125 -10z"/>
<path d="M4716 1682 c-9 -14 74 -76 86 -64 6 6 -1 18 -24 34 -47 35 -56 40
-62 30z"/>
<path d="M3190 1640 c0 -6 38 -10 95 -10 108 0 121 -12 60 -53 -39 -27 -36
-46 4 -21 34 22 61 55 61 77 0 15 -12 17 -110 17 -67 0 -110 -4 -110 -10z"/>
<path d="M4922 1602 c-38 -59 -92 -98 -166 -121 -34 -10 -52 -21 -48 -28 12
-19 123 22 171 63 51 44 97 112 84 125 -6 6 -22 -10 -41 -39z"/>
<path d="M3890 1595 c-15 -18 -6 -45 13 -45 8 0 20 7 27 15 10 12 10 18 0 30
-16 19 -24 19 -40 0z"/>
<path d="M4420 1600 c0 -5 18 -10 40 -10 l40 0 0 -65 0 -65 -55 0 c-30 0 -55
-4 -55 -10 0 -6 47 -10 120 -10 73 0 120 4 120 10 0 6 -25 10 -55 10 l-55 0 0
65 0 65 45 0 c25 0 45 5 45 10 0 6 -38 10 -95 10 -57 0 -95 -4 -95 -10z"/>
<path d="M3280 1568 c0 -45 -19 -78 -58 -104 -33 -22 -28 -43 5 -25 41 22 66
60 71 111 3 33 1 50 -7 50 -6 0 -11 -15 -11 -32z"/>
<path d="M3480 1580 c0 -6 55 -10 145 -10 90 0 145 4 145 10 0 6 -55 10 -145
10 -90 0 -145 -4 -145 -10z"/>
<path d="M3480 1140 c0 -18 -7 -20 -70 -20 l-70 0 0 -30 c0 -16 5 -30 10 -30
6 0 10 9 10 20 0 19 7 20 130 20 123 0 130 -1 130 -20 0 -11 5 -20 10 -20 6 0
10 14 10 30 l0 30 -70 0 c-63 0 -70 2 -70 20 0 11 -4 20 -10 20 -5 0 -10 -9
-10 -20z"/>
<path d="M3120 1053 c0 -101 -12 -152 -40 -178 -24 -21 -26 -35 -5 -35 15 0
55 68 55 95 0 12 12 15 55 15 l55 0 0 -45 c0 -41 -2 -45 -25 -45 -14 0 -25 -5
-25 -11 0 -6 14 -9 33 -7 l32 3 3 148 3 147 -71 0 -70 0 0 -87z m120 37 c0
-29 -1 -30 -50 -30 -49 0 -50 1 -50 30 0 29 1 30 50 30 49 0 50 -1 50 -30z m0
-85 l0 -35 -50 0 -50 0 0 35 0 35 50 0 50 0 0 -35z"/>
<path d="M2980 1015 c0 -70 4 -115 10 -115 6 0 10 7 10 15 0 10 11 15 35 15
19 0 35 -4 35 -10 0 -5 5 -10 10 -10 6 0 10 43 10 110 l0 110 -55 0 -55 0 0
-115z m90 60 c0 -33 -2 -35 -35 -35 -33 0 -35 2 -35 35 0 33 2 35 35 35 33 0
35 -2 35 -35z m0 -90 c0 -33 -2 -35 -35 -35 -33 0 -35 2 -35 35 0 33 2 35 35
35 33 0 35 -2 35 -35z"/>
<path d="M3380 1050 c0 -5 23 -10 50 -10 49 0 50 -1 50 -30 l0 -30 -70 0 c-40
0 -70 -4 -70 -10 0 -6 30 -10 71 -10 l70 0 -3 -47 c-3 -44 -5 -48 -30 -51 -43
-5 -33 -24 10 -20 l37 3 3 58 3 57 69 0 c40 0 70 4 70 10 0 6 -30 10 -70 10
l-70 0 0 30 c0 29 2 30 45 30 25 0 45 5 45 10 0 6 -42 10 -105 10 -63 0 -105
-4 -105 -10z"/>
</g>
</svg>
